<?xml version="1.0" encoding="utf-8"?>
<!-- Generator: Adobe Illustrator 19.0.1, SVG Export Plug-In . SVG Version: 6.00 Build 0)  -->
<svg fill="#000000" version="1.0" id="Layer_1" xmlns="http://www.w3.org/2000/svg" xmlns:xlink="http://www.w3.org/1999/xlink" x="0px" y="0px"
	 viewBox="-281 373 48 48" enable-background="new -281 373 48 48" xml:space="preserve">
<path d="M-245,397h-6l8,8l8-8h-6c0-8.8-7.2-16-16-16c-3.1,0-6,0.9-8.5,2.5l2.9,2.9c1.7-0.9,3.6-1.4,5.6-1.4
	C-250.4,385-245,390.4-245,397z M-248.5,410.5l-2.9-2.9c-1.7,0.9-3.6,1.4-5.6,1.4c-6.6,0-12-5.4-12-12h6l-8-8l-8,8h6
	c0,8.8,7.2,16,16,16C-253.9,413-250.9,412.1-248.5,410.5z"/>
<path d="M-262.9,389.9v3.5h12.1v-3.5H-262.9z M-262.9,404.1h12.1v-3.5h-12.1V404.1z M-262.9,398.8h12.1v-3.5h-12.1V398.8z"/>
</svg>
